TRAIL_071_EP_01_grf.mot
version=1
nRows=27
nColumns=19
inDegrees=yes
endheader
time	ground_force_vx	ground_force_vy	ground_force_vz	ground_force_px	ground_force_py	ground_force_pz	1_ground_force_vx	1_ground_force_vy	1_ground_force_vz	1_ground_force_px	1_ground_force_py	1_ground_force_pz	ground_torque_x	ground_torque_y	ground_torque_z	1_ground_torque_x	1_ground_torque_y	1_ground_torque_z
        0.6750000715	      241.1601196961	      864.2711510298	        6.2013451364	        2.1525050237	        0.0000000000	        0.0579576604	        0.0000000000	        0.0000000000	        0.0000000000	        0.0000000000	        0.0000000000	        0.0000000000	        0.0000000000	       -7.5204683880	        0.0000000000	        0.0000000000	        0.0000000000	        0.0000000000
        0.6758334041	      239.8367061405	      844.6508149687	        6.8210285195	        2.1524033534	        0.0000000000	        0.0583071895	        0.0000000000	        0.0000000000	        0.0000000000	        0.0000000000	        0.0000000000	        0.0000000000	        0.0000000000	       -7.4236249656	        0.0000000000	        0.0000000000	        0.0000000000	        0.0000000000
        0.6766667366	      238.3008560792	      824.9149615671	        7.4090311480	        2.1523641705	        0.0000000000	        0.0584048862	        0.0000000000	        0.0000000000	        0.0000000000	        0.0000000000	        0.0000000000	        0.0000000000	        0.0000000000	       -7.3218510163	        0.0000000000	        0.0000000000	        0.0000000000	        0.0000000000
        0.6775000691	      236.5500346261	      805.0685902349	        7.9661883605	        2.1524340115	        0.0000000000	        0.0584938923	        0.0000000000	        0.0000000000	        0.0000000000	        0.0000000000	        0.0000000000	        0.0000000000	        0.0000000000	       -7.2147311031	        0.0000000000	        0.0000000000	        0.0000000000	        0.0000000000
        0.6783334017	      234.5826708807	      785.1160254419	        8.4933780070	        2.1526850458	        0.0000000000	        0.0584889478	        0.0000000000	        0.0000000000	        0.0000000000	        0.0000000000	        0.0000000000	        0.0000000000	        0.0000000000	       -7.1018501691	        0.0000000000	        0.0000000000	        0.0000000000	        0.0000000000
        0.6791667342	      232.3982695035	      765.0611333666	        8.9914420438	        2.1530737569	        0.0000000000	        0.0583155155	        0.0000000000	        0.0000000000	        0.0000000000	        0.0000000000	        0.0000000000	        0.0000000000	        0.0000000000	       -6.9828134666	        0.0000000000	        0.0000000000	        0.0000000000	        0.0000000000
        0.6800000668	      229.9974905865	      744.9076423089	        9.4611139392	        2.1532785060	        0.0000000000	        0.0583030267	        0.0000000000	        0.0000000000	        0.0000000000	        0.0000000000	        0.0000000000	        0.0000000000	        0.0000000000	       -6.8572674116	        0.0000000000	        0.0000000000	        0.0000000000	        0.0000000000
        0.6808333993	      227.3821947216	      724.6595632873	        9.9029558860	        2.1531510342	        0.0000000000	        0.0584002749	        0.0000000000	        0.0000000000	        0.0000000000	        0.0000000000	        0.0000000000	        0.0000000000	        0.0000000000	       -6.7249204443	        0.0000000000	        0.0000000000	        0.0000000000	        0.0000000000
        0.6816667318	      224.5554521086	      704.3217003627	       10.3173092281	        2.1530499634	        0.0000000000	        0.0585233652	        0.0000000000	        0.0000000000	        0.0000000000	        0.0000000000	        0.0000000000	        0.0000000000	        0.0000000000	       -6.5855631130	        0.0000000000	        0.0000000000	        0.0000000000	        0.0000000000
        0.6825000644	      221.5215167032	      683.9002338350	       10.7042608531	        2.1534812106	        0.0000000000	        0.0585979305	        0.0000000000	        0.0000000000	        0.0000000000	        0.0000000000	        0.0000000000	        0.0000000000	        0.0000000000	       -6.4390867297	        0.0000000000	        0.0000000000	        0.0000000000	        0.0000000000
        0.6833333969	      218.2857685705	      663.4033531976	       11.0636275183	        2.1538499429	        0.0000000000	        0.0585696678	        0.0000000000	        0.0000000000	        0.0000000000	        0.0000000000	        0.0000000000	        0.0000000000	        0.0000000000	       -6.2854999900	        0.0000000000	        0.0000000000	        0.0000000000	        0.0000000000
        0.6841667295	      214.8546294922	      642.8419106021	       11.3949589921	        2.1535518581	        0.0000000000	        0.0585231488	        0.0000000000	        0.0000000000	        0.0000000000	        0.0000000000	        0.0000000000	        0.0000000000	        0.0000000000	       -6.1249429074	        0.0000000000	        0.0000000000	        0.0000000000	        0.0000000000
        0.6850000620	      211.2354583434	      622.2300601305	       11.6975594850	        2.1532674501	        0.0000000000	        0.0588228192	        0.0000000000	        0.0000000000	        0.0000000000	        0.0000000000	        0.0000000000	        0.0000000000	        0.0000000000	       -5.9576973790	        0.0000000000	        0.0000000000	        0.0000000000	        0.0000000000
        0.6858333945	      207.4364338470	      601.5858441885	       11.9705252665	        2.1539672503	        0.0000000000	        0.0588862631	        0.0000000000	        0.0000000000	        0.0000000000	        0.0000000000	        0.0000000000	        0.0000000000	        0.0000000000	       -5.7841937569	        0.0000000000	        0.0000000000	        0.0000000000	        0.0000000000
        0.6866667271	      203.4664330738	      580.9316864139	       12.2127949227	        2.1541581315	        0.0000000000	        0.0587959647	        0.0000000000	        0.0000000000	        0.0000000000	        0.0000000000	        0.0000000000	        0.0000000000	        0.0000000000	       -5.6050129466	        0.0000000000	        0.0000000000	        0.0000000000	        0.0000000000
        0.6875000596	      199.3349144143	      560.2947511005	       12.4232076966	        2.1543342423	        0.0000000000	        0.0587745859	        0.0000000000	        0.0000000000	        0.0000000000	        0.0000000000	        0.0000000000	        0.0000000000	        0.0000000000	       -5.4208837972	        0.0000000000	        0.0000000000	        0.0000000000	        0.0000000000
        0.6883333921	      195.0518135292	      539.7071327262	       12.6005649017	        2.1545680076	        0.0000000000	        0.0587185208	        0.0000000000	        0.0000000000	        0.0000000000	        0.0000000000	        0.0000000000	        0.0000000000	        0.0000000000	       -5.2326758693	        0.0000000000	        0.0000000000	        0.0000000000	        0.0000000000
        0.6891667247	      190.6274598210	      519.2058458518	       12.7436895442	        2.1548025973	        0.0000000000	        0.0585331961	        0.0000000000	        0.0000000000	        0.0000000000	        0.0000000000	        0.0000000000	        0.0000000000	        0.0000000000	       -5.0413879954	        0.0000000000	        0.0000000000	        0.0000000000	        0.0000000000
        0.6900000572	      186.0725191728	      498.8325947320	       12.8514798595	        2.1552169693	        0.0000000000	        0.0585499028	        0.0000000000	        0.0000000000	        0.0000000000	        0.0000000000	        0.0000000000	        0.0000000000	        0.0000000000	       -4.8481333029	        0.0000000000	        0.0000000000	        0.0000000000	        0.0000000000
        0.6908333898	      181.3979662126	      478.6333123801	       12.9229533523	        2.1554141741	        0.0000000000	        0.0585802964	        0.0000000000	        0.0000000000	        0.0000000000	        0.0000000000	        0.0000000000	        0.0000000000	        0.0000000000	       -4.6541214857	        0.0000000000	        0.0000000000	        0.0000000000	        0.0000000000
        0.6916667223	      176.6150866222	      458.6574699480	       12.9572790655	        2.1553982924	        0.0000000000	        0.0585695484	        0.0000000000	        0.0000000000	        0.0000000000	        0.0000000000	        0.0000000000	        0.0000000000	        0.0000000000	       -4.4606390814	        0.0000000000	        0.0000000000	        0.0000000000	        0.0000000000
        0.6925000548	      171.7355075514	      438.9571691209	       12.9537972789	        2.1554776258	        0.0000000000	        0.0583138624	        0.0000000000	        0.0000000000	        0.0000000000	        0.0000000000	        0.0000000000	        0.0000000000	        0.0000000000	       -4.2690283704	        0.0000000000	        0.0000000000	        0.0000000000	        0.0000000000
        0.6933333874	      166.7712522213	      419.5860424902	       12.9120275642	        2.1556626219	        0.0000000000	        0.0583126744	        0.0000000000	        0.0000000000	        0.0000000000	        0.0000000000	        0.0000000000	        0.0000000000	        0.0000000000	       -4.0806653110	        0.0000000000	        0.0000000000	        0.0000000000	        0.0000000000
        0.6941667199	      161.7348131411	      400.5979987127	       12.8316677379	        2.1558660630	        0.0000000000	        0.0587639161	        0.0000000000	        0.0000000000	        0.0000000000	        0.0000000000	        0.0000000000	        0.0000000000	        0.0000000000	       -3.8969366927	        0.0000000000	        0.0000000000	        0.0000000000	        0.0000000000
        0.6950000525	      156.6392368475	      382.0458598009	       12.7125872906	        2.1561651033	        0.0000000000	        0.0582494321	        0.0000000000	        0.0000000000	        0.0000000000	        0.0000000000	        0.0000000000	        0.0000000000	        0.0000000000	       -3.7192164553	        0.0000000000	        0.0000000000	        0.0000000000	        0.0000000000
        0.6958333850	      151.4982117688	      363.9799465918	       12.5548190653	        2.1566603291	        0.0000000000	        0.0583199364	        0.0000000000	        0.0000000000	        0.0000000000	        0.0000000000	        0.0000000000	        0.0000000000	        0.0000000000	       -3.5488409142	        0.0000000000	        0.0000000000	        0.0000000000	        0.0000000000
        0.6966667175	      146.3261497520	      346.4466747762	       12.3585524714	        2.1572304018	        0.0000000000	        0.0577781709	        0.0000000000	        0.0000000000	        0.0000000000	        0.0000000000	        0.0000000000	        0.0000000000	        0.0000000000	       -3.3870825461	        0.0000000000	        0.0000000000	        0.0000000000	        0.0000000000
